# xmcd CD database file
#
# Track frame offsets:
#	150
#	21101
#	40069
#	57964
#	78380
#	96622
#	115381
#	133973
#	152219
#	169015
#	185785
#	204446
#	222791
#
# Disc length: 3108 seconds
#
# Revision: 48
# Processed by: cddbd v1.5.1PL0 Copyright (c) Steve Scherf et al.
# Submitted via: CDex 1.50
#
DISCID=bc0c220d
DTITLE=Eros Ramazzotti - 9
DYEAR=2003
DGENRE=Pop
TTITLE0=Un segundo de paz
TTITLE1=Solo ayer
TTITLE2=Una emocion para siempre
TTITLE3=Revivirte otra vez
TTITLE4=La noche de tus ojos
TTITLE5=Un ancla en el viento
TTITLE6=Piedra pequeña
TTITLE7=Mamara, una gran mujer
TTITLE8=El hombre que miraba las nubes
TTITLE9=Cancion para ella
TTITLE10=No te prometo nada
TTITLE11=Falsa salida
TTITLE12=Hay Una Melodia
EXTD=YEAR: 2003
EXTT0=
EXTT1=
EXTT2=
EXTT3=
EXTT4=
EXTT5=
EXTT6=
EXTT7=
EXTT8=
EXTT9=
EXTT10=
EXTT11=
EXTT12=
PLAYORDER=
